<svg width="176" height="53" viewBox="0 0 176 53" fill="none" xmlns="http://www.w3.org/2000/svg">
<mask id="mask0_210_872" style="mask-type:luminance" maskUnits="userSpaceOnUse" x="0" y="0" width="127" height="47">
<path d="M0 0H126.017V46.5299H0V0Z" fill="white"/>
</mask>
<g mask="url(#mask0_210_872)">
<mask id="mask1_210_872" style="mask-type:luminance" maskUnits="userSpaceOnUse" x="-1" y="0" width="128" height="47">
<path d="M-0.444336 15.5726L122.359 0.0878906L126.441 30.984L3.63674 46.4678L-0.444336 15.5726Z" fill="white"/>
</mask>
<g mask="url(#mask1_210_872)">
<mask id="mask2_210_872" style="mask-type:luminance" maskUnits="userSpaceOnUse" x="-1" y="0" width="128" height="47">
<path d="M126.018 0H-0.212891V46.5299H126.018V0Z" fill="white"/>
</mask>
<g mask="url(#mask2_210_872)">
<mask id="mask3_210_872" style="mask-type:luminance" maskUnits="userSpaceOnUse" x="3" y="7" width="123" height="39">
<path d="M3.94873 7.45361H125.324V45.4003H3.94873V7.45361Z" fill="white"/>
</mask>
<g mask="url(#mask3_210_872)">
<mask id="mask4_210_872" style="mask-type:luminance" maskUnits="userSpaceOnUse" x="-1" y="0" width="128" height="47">
<path d="M-0.444336 15.5726L122.359 0.0878906L126.441 30.984L3.63674 46.4678L-0.444336 15.5726Z" fill="white"/>
</mask>
<g mask="url(#mask4_210_872)">
<mask id="mask5_210_872" style="mask-type:luminance" maskUnits="userSpaceOnUse" x="-1" y="0" width="128" height="47">
<path d="M122.335 0.090332L-0.468262 15.575L3.61281 46.4711L126.416 30.9864L122.335 0.090332Z" fill="white"/>
</mask>
<g mask="url(#mask5_210_872)">
<path d="M11.9086 43.5707C13.4303 41.5061 15.0513 39.52 16.7726 37.6115C18.4939 35.7031 20.3055 33.882 22.2101 32.1474C24.1138 30.4127 26.0997 28.7725 28.1687 27.2284C30.2377 25.6844 32.3789 24.2427 34.5924 22.9042C36.8357 21.549 39.1413 20.304 41.5092 19.1702C43.8771 18.0356 46.2965 17.0174 48.7673 16.1148C51.2373 15.213 53.747 14.4304 56.2964 13.7687C58.8449 13.1069 61.4215 12.5687 64.0242 12.1532C66.6693 11.727 69.3298 11.4279 72.0057 11.2567C74.6816 11.0864 77.3592 11.0441 80.0387 11.1306C82.7182 11.217 85.3868 11.4314 88.0455 11.7747C90.7033 12.1179 93.3376 12.5873 95.9485 13.1837C98.581 13.7899 101.176 14.5213 103.735 15.3754C106.293 16.2304 108.804 17.2044 111.265 18.2994C113.727 19.3935 116.127 20.6022 118.468 21.9257C120.808 23.2501 123.077 24.6821 125.275 26.2217C123.152 24.5188 120.951 22.9201 118.668 21.4281C116.386 19.9352 114.035 18.5553 111.614 17.2874C109.193 16.0195 106.715 14.8707 104.179 13.8402C101.643 12.8105 99.0623 11.9035 96.4361 11.1209C93.7747 10.3259 91.0808 9.66062 88.3535 9.12417C85.6261 8.58772 82.878 8.18186 80.11 7.90834C77.3421 7.63482 74.5669 7.49365 71.7853 7.48571C69.0029 7.47777 66.2268 7.60217 63.457 7.85981C60.6538 8.12186 57.8705 8.51714 55.107 9.04653C52.3436 9.57504 49.6135 10.235 46.916 11.0256C44.2194 11.8161 41.5679 12.7337 38.9634 13.7775C36.358 14.8222 33.8112 15.9886 31.3232 17.2777C28.8081 18.5932 26.3643 20.0252 23.991 21.5737C21.6186 23.1212 19.3284 24.7782 17.1203 26.5438C14.9122 28.3093 12.7972 30.1754 10.7752 32.1412C8.75316 34.1079 6.83318 36.1654 5.01616 38.3147C4.92405 38.4224 4.83825 38.5344 4.75788 38.65C4.6775 38.7665 4.60345 38.8865 4.53481 39.0091C4.46708 39.1327 4.40477 39.2588 4.34968 39.3885C4.29369 39.5173 4.24492 39.6488 4.20248 39.7829C4.16003 39.917 4.12481 40.0529 4.09591 40.1897C4.06701 40.3273 4.04534 40.4658 4.03089 40.6052C4.01554 40.7446 4.00831 40.8841 4.00741 41.0243C4.00651 41.1646 4.01283 41.3049 4.02637 41.4443C4.03902 41.5837 4.05979 41.7223 4.08688 41.8599C4.11397 41.9975 4.14829 42.1334 4.18893 42.2675C4.23047 42.4025 4.27743 42.534 4.33162 42.6637C4.3858 42.7943 4.44721 42.9204 4.51404 43.0448C4.58087 43.1684 4.65402 43.2892 4.73259 43.4057C4.81206 43.5231 4.89695 43.636 4.98726 43.7445C5.07757 43.8539 5.1733 43.958 5.27445 44.0577C5.37559 44.1575 5.48125 44.2519 5.59143 44.341C5.70161 44.431 5.8163 44.5148 5.93551 44.5933C6.05381 44.6718 6.17664 44.7442 6.30307 44.8112C6.4295 44.8774 6.55864 44.9383 6.69049 44.9921C6.82325 45.0468 6.95781 45.0945 7.09418 45.1359C7.23145 45.1774 7.37052 45.2118 7.5114 45.2401C7.65138 45.2683 7.79317 45.2895 7.93586 45.3036C8.07855 45.3186 8.22214 45.3256 8.36573 45.3265C8.50842 45.3274 8.65201 45.3212 8.7947 45.308C8.93739 45.2948 9.07917 45.2753 9.22005 45.2489C9.36094 45.2224 9.50001 45.1889 9.63819 45.1492C9.77546 45.1086 9.91092 45.0627 10.0437 45.0089C10.1764 44.9559 10.3065 44.8968 10.4329 44.8315C10.5602 44.7662 10.6831 44.6948 10.8032 44.618C10.9224 44.5404 11.038 44.4574 11.15 44.3692C11.261 44.281 11.3676 44.1875 11.4697 44.0886C11.5717 43.9898 11.6683 43.8866 11.7595 43.7789L11.9086 43.5707Z" fill="#A63200"/>
</g>
</g>
</g>
</g>
</g>
</g>
<mask id="mask6_210_872" style="mask-type:luminance" maskUnits="userSpaceOnUse" x="147" y="7" width="29" height="46">
<path d="M147.98 7.45361H175.668V52.7182H147.98V7.45361Z" fill="white"/>
</mask>
<g mask="url(#mask6_210_872)">
<mask id="mask7_210_872" style="mask-type:luminance" maskUnits="userSpaceOnUse" x="147" y="7" width="29" height="46">
<path d="M175.723 7.45361H147.98V52.8541H175.723V7.45361Z" fill="white"/>
</mask>
<g mask="url(#mask7_210_872)">
<path d="M160.094 31.6624C160.137 31.7048 160.212 31.7551 160.317 31.8115C160.557 31.9421 160.827 32.0242 161.128 32.0595C161.472 32.0992 161.804 32.0701 162.123 31.973C162.326 31.9121 162.493 31.8336 162.626 31.7383C162.656 31.7163 162.683 31.6951 162.704 31.6748H162.705C162.657 31.733 162.6 31.8195 162.536 31.9351C162.317 32.3277 162.11 32.873 161.915 33.57C161.619 34.6306 161.665 35.5685 162.052 36.3828C162.125 36.539 162.188 36.6475 162.237 36.7111C162.191 36.6519 162.109 36.5849 161.991 36.5099C161.762 36.3643 161.505 36.2708 161.219 36.2293C160.98 36.1949 160.762 36.202 160.566 36.2505C160.713 36.2134 160.815 36.1808 160.873 36.1534C160.767 36.2037 160.646 36.2955 160.511 36.4269C160.396 36.5399 160.304 36.6493 160.233 36.7561L160.225 36.7631C160.305 36.5919 160.394 36.3361 160.491 35.9946C160.641 35.4652 160.61 34.5503 160.395 33.2488C160.283 32.5721 160.155 32.0427 160.008 31.6616C159.97 31.561 159.939 31.4904 159.914 31.4498C159.95 31.5089 160.009 31.5795 160.094 31.6624ZM165.829 26.0597C166.568 26.7823 167.161 27.7255 167.606 28.8893C167.938 29.761 168.204 30.7934 168.401 31.988C168.804 34.4294 168.772 36.4719 168.305 38.1157C167.806 39.8715 167.119 41.1765 166.246 42.0297C165.355 42.9005 164.131 43.5322 162.576 43.9266C161.716 44.1419 160.867 44.1878 160.029 44.0669C159.145 43.9381 158.322 43.6319 157.561 43.1467C156.379 42.3932 155.424 41.2515 154.696 39.7198C153.476 37.154 153.275 34.4091 154.091 31.486C154.896 28.6043 156.141 26.5582 157.829 25.3495C159.152 24.4018 160.57 24.0154 162.084 24.191C163.47 24.3516 164.718 24.9745 165.829 26.0597ZM148.764 33.3212C148.919 30.3478 149.709 27.625 151.133 25.1527C152.71 22.414 154.818 20.5232 157.459 19.4829C159.117 18.8291 161 18.7303 163.109 19.1865C164.772 19.5465 166.622 20.2691 168.656 21.3534C169.714 21.9234 170.597 22.4608 171.306 22.9672C172.221 23.6192 172.926 24.2783 173.424 24.9462C174.153 25.9256 174.541 27.0047 174.59 28.1817C174.633 29.2378 174.391 30.2816 173.864 31.3113C173.887 31.2645 173.905 31.2257 173.916 31.1948C173.912 31.2063 173.906 31.2275 173.898 31.2592C173.862 31.4039 173.83 31.5954 173.803 31.8336C173.731 32.4698 173.708 33.3027 173.734 34.3306C173.851 37.9401 173.192 40.9444 171.757 43.3434C170.17 45.9966 167.77 47.7788 164.557 48.6912C162.145 49.3811 159.848 49.3979 157.668 48.7414C155.527 48.0982 153.617 46.8374 151.937 44.959C150.519 43.3558 149.576 41.645 149.111 39.8274L149.099 39.7815L149.089 39.7356C148.73 38.1748 148.621 36.037 148.764 33.3212ZM156.863 33.7271C156.758 35.7193 156.804 37.1425 157.001 37.9966L153.045 38.8666L156.978 37.9057C157.131 38.5022 157.487 39.1154 158.045 39.7462C158.713 40.4927 159.382 40.9674 160.053 41.1694C160.683 41.3582 161.43 41.33 162.292 41.0838C163.436 40.7591 164.256 40.1794 164.755 39.3457C165.405 38.2595 165.696 36.6537 165.627 34.5282C165.591 33.1421 165.63 31.9518 165.743 30.9583C165.889 29.6755 166.178 28.6123 166.61 27.7679C166.515 27.9532 166.474 28.1967 166.486 28.4984C166.503 28.9211 166.63 29.2908 166.865 29.6066C166.892 29.6428 166.915 29.6719 166.935 29.6931C166.93 29.6869 166.918 29.6755 166.899 29.6587C166.81 29.5775 166.685 29.4805 166.526 29.3675C166.092 29.0578 165.508 28.7058 164.773 28.3096C163.41 27.5826 162.271 27.1203 161.355 26.9226C161.041 26.8547 160.783 26.8238 160.58 26.83C160.531 26.8318 160.492 26.8353 160.464 26.8406C160.468 26.8397 160.478 26.8362 160.493 26.83C159.612 27.1776 158.848 27.9135 158.201 29.0375C157.4 30.429 156.954 31.9915 156.863 33.7271Z" fill="#D44000"/>
<path d="M162.962 28.8612C162.066 27.986 161.154 27.8801 160.227 28.5436C159.299 29.2071 158.558 30.5359 158.002 32.5281C157.447 34.5213 157.572 36.3627 158.374 38.0514C159.178 39.7411 160.243 40.4196 161.571 40.0878C162.406 39.8761 163.008 39.5902 163.377 39.2302C163.747 38.8685 164.087 38.1432 164.396 37.0562C164.706 35.9692 164.706 34.4904 164.396 32.6199C164.087 30.7476 163.609 29.4947 162.962 28.8612ZM152.811 33.5269C152.935 31.172 153.555 29.0289 154.668 27.0966C155.78 25.1652 157.216 23.8523 158.977 23.1579C160.737 22.4644 163.316 23.0221 166.715 24.8308C168.507 25.7978 169.649 26.6131 170.143 27.2766C170.639 27.9401 170.67 28.6954 170.237 29.5424C169.803 30.3876 169.617 32.0164 169.681 34.4304C169.866 40.1646 167.78 43.6497 163.424 44.8876C160.151 45.8238 157.341 44.9794 154.993 42.3536C154.003 41.2366 153.354 40.0737 153.046 38.8667C152.766 37.6597 152.688 35.8801 152.811 33.5269Z" fill="white"/>
</g>
</g>
<mask id="mask8_210_872" style="mask-type:luminance" maskUnits="userSpaceOnUse" x="7" y="11" width="151" height="39">
<path d="M157.228 11.0674H7.87842V49.2399H157.228V11.0674Z" fill="white"/>
</mask>
<g mask="url(#mask8_210_872)">
<path d="M22.9233 37.5724C23.0434 37.5627 23.1798 37.5045 23.3333 37.3969C23.6403 37.1816 23.9609 36.8234 24.2969 36.324L24.3375 36.2622L24.3818 36.2031C24.6392 35.8572 24.8189 35.5978 24.9227 35.4249C24.9336 35.4072 24.9408 35.3949 24.9444 35.3878C24.9327 35.4099 24.92 35.4381 24.9047 35.4725C24.7548 35.829 24.6979 36.2234 24.7331 36.6557C24.7846 37.2848 25.0176 37.8398 25.4321 38.3224C25.6732 38.603 25.9568 38.8306 26.2828 39.0044C26.5357 39.1403 26.7939 39.233 27.0567 39.2833C27.129 39.2974 27.1904 39.3062 27.2419 39.3097C27.2337 39.3097 27.2139 39.3088 27.1832 39.3088C26.9023 39.3053 26.4363 39.3282 25.7852 39.3794C24.054 39.5153 22.8691 39.5356 22.2297 39.4403C21.2869 39.3 20.4136 38.9189 19.6107 38.2959C18.6038 37.5151 18.015 36.5772 17.8443 35.4822C17.689 34.4879 17.9048 33.475 18.4918 32.4444C18.8269 31.8559 19.2631 31.3653 19.7995 30.9718C20.326 30.5863 20.9202 30.3145 21.584 30.1574C22.2424 30.0022 23.7234 29.8275 26.0254 29.6351C28.3798 29.4375 29.8979 29.3784 30.5788 29.4569C31.6462 29.5795 32.7128 30.0657 33.7784 30.9145C35.0798 31.9521 35.7725 33.1723 35.8565 34.5761C35.9016 35.334 35.6813 36.2331 35.1972 37.2733C34.873 37.9677 34.3989 38.8227 33.773 39.8382C32.5078 41.8896 31.3898 43.3798 30.4189 44.3089L30.3819 44.3442L30.344 44.3786C29.2973 45.3139 28.2714 45.9906 27.2663 46.408C26.299 46.8094 25.1015 47.0803 23.6738 47.2215L23.6277 47.2259L23.5807 47.2294C21.9461 47.3423 20.3784 47.1341 18.8774 46.6065C17.4135 46.0921 16.0408 45.2812 14.7602 44.1748C13.1067 42.7446 11.9254 41.1643 11.2165 39.4341C10.5717 37.8627 10.1183 35.4778 9.85554 32.2785C9.58642 29.0007 9.79865 26.2603 10.4913 24.0589C11.2915 21.5178 12.7915 19.5635 14.9941 18.1959C15.9523 17.5933 16.8626 17.2156 17.7269 17.0621C18.3491 16.9518 19.5502 16.8777 21.3293 16.8389C23.1527 16.8001 24.6175 16.8768 25.7256 17.0709L25.7987 17.0842L25.8719 17.1C27.1841 17.3947 28.5071 18.0115 29.8401 18.9503C31.1306 19.8582 32.1502 20.8499 32.8988 21.9254C33.2086 22.3692 33.4524 22.7389 33.6312 23.0345C33.9518 23.5621 34.1559 24.035 34.2444 24.4515C34.3781 25.0841 34.3167 25.7626 34.0584 26.4861C33.941 26.8161 33.7685 27.1964 33.5427 27.6296C33.1147 28.4493 32.5277 29.0793 31.7817 29.5204C30.987 29.9889 30.1056 30.1945 29.1357 30.1354C27.5209 30.0375 26.1265 29.2125 24.9525 27.6596L27.4252 25.8756L25.023 27.7496C24.7629 27.4302 24.5299 27.177 24.3258 26.9899C24.2535 26.9238 24.1903 26.8708 24.1361 26.8311C24.1226 26.8205 24.1108 26.8126 24.1018 26.8073C24.1054 26.8091 24.1108 26.8126 24.1208 26.817C24.1533 26.8338 24.1795 26.847 24.2012 26.8549C24.193 26.8514 24.1777 26.847 24.1551 26.8399C24.0567 26.8108 23.9266 26.7808 23.765 26.7499C23.3387 26.6696 22.7806 26.6026 22.0897 26.5479C21.4178 26.4949 20.8724 26.4782 20.4533 26.4985C20.3025 26.5055 20.1824 26.5161 20.093 26.5311C20.0813 26.5329 20.0722 26.5347 20.065 26.5364L20.0677 26.5355C20.0966 26.5276 20.1318 26.5161 20.1725 26.5002C20.2998 26.4508 20.4028 26.39 20.4813 26.3167C20.494 26.3053 20.5021 26.2982 20.5048 26.2947C20.4913 26.3114 20.475 26.3361 20.4551 26.3679C20.279 26.6608 20.121 27.1276 19.981 27.769C19.6342 29.3563 19.5782 31.0856 19.8112 32.9579C20.0171 34.6105 20.4028 35.7893 20.9681 36.496L21.0006 36.5357L21.0304 36.5772C21.2264 36.8392 21.5542 37.0775 22.0139 37.2919C22.2776 37.4145 22.507 37.4974 22.7038 37.5424C22.8059 37.5654 22.879 37.576 22.9233 37.5724ZM23.4146 43.559C22.143 43.6587 20.7938 43.3763 19.3687 42.7128C17.9725 42.0625 16.8708 41.1961 16.0634 40.1144L18.5469 38.3453L16.1257 40.1956C14.8587 38.6127 14.0531 36.4422 13.709 33.6849C13.393 31.1474 13.4797 28.7572 13.9691 26.5152C14.6157 23.556 15.927 21.6907 17.9012 20.9196C18.5144 20.6814 19.2667 20.5411 20.158 20.4996C20.8399 20.467 21.6481 20.4881 22.5837 20.5614C23.5004 20.6337 24.2833 20.7308 24.9309 20.8534C25.768 21.0113 26.4562 21.2302 26.9953 21.509C27.912 21.9828 28.8557 22.8139 29.8274 24.0024L29.8635 24.0465L29.8979 24.0915C29.9611 24.1753 30.018 24.2424 30.0685 24.2927C30.0812 24.305 30.092 24.3147 30.0993 24.3209C30.0974 24.3192 30.0911 24.3147 30.083 24.3094C29.9358 24.2115 29.7461 24.155 29.5159 24.1409C29.2079 24.1224 28.9027 24.2027 28.6019 24.38C28.3482 24.53 28.1702 24.7038 28.0664 24.9006C28.1657 24.7118 28.228 24.5803 28.2533 24.5089C28.2353 24.5609 28.2181 24.6306 28.2019 24.7171C28.1477 25.0224 28.1549 25.34 28.2253 25.6709C28.2678 25.8703 28.3238 26.0414 28.3951 26.1844C28.3906 26.1747 28.3725 26.1447 28.3418 26.0935C28.2289 25.9073 28.0537 25.6444 27.8171 25.3047C27.4749 24.8124 26.9511 24.3183 26.2467 23.8224C25.5847 23.3565 25.0013 23.0671 24.4947 22.9533L25.1837 20.0267L24.641 22.9824C23.9375 22.8589 22.879 22.813 21.4657 22.8439C20.009 22.8748 19.1294 22.918 18.8251 22.9719C18.8449 22.9683 18.8576 22.9657 18.863 22.9639C18.8413 22.971 18.8115 22.9824 18.7745 22.9983C18.6444 23.0557 18.4837 23.1439 18.2922 23.2648C17.3648 23.8401 16.7227 24.6933 16.3677 25.8235C15.9054 27.2926 15.7771 29.2848 15.9839 31.7986C16.1962 34.3926 16.5095 36.1934 16.9231 37.201C17.2708 38.0507 17.9075 38.8756 18.8332 39.6768C19.5249 40.2741 20.2339 40.7003 20.9591 40.9552C21.6463 41.197 22.3769 41.2914 23.1491 41.2385L23.3649 44.2339L23.0551 41.2464C23.8643 41.1661 24.4667 41.0444 24.8631 40.8802C25.2217 40.7311 25.6651 40.4206 26.1943 39.9476L28.2687 42.1631L26.1184 40.0173C26.7163 39.4456 27.5119 38.3533 28.5071 36.7395C29.011 35.9216 29.3759 35.2705 29.6016 34.7861C29.6802 34.6176 29.7317 34.4932 29.7561 34.4129C29.7181 34.5364 29.7064 34.7076 29.719 34.9264C29.7335 35.1672 29.7967 35.3772 29.9096 35.5555C29.9313 35.5908 29.9502 35.6163 29.9665 35.6331C29.952 35.6181 29.9277 35.5969 29.8933 35.5696C29.7615 35.4646 29.6594 35.394 29.5863 35.3578C29.6423 35.3861 29.7335 35.4072 29.859 35.4213C29.7913 35.4134 29.5149 35.4213 29.0309 35.4443C28.4132 35.4743 27.5859 35.5316 26.5501 35.619C24.5597 35.7849 23.3866 35.9102 23.0317 35.9949C23.1879 35.9578 23.3414 35.8846 23.4904 35.7752C23.6503 35.6578 23.7749 35.5211 23.8634 35.3658C23.8589 35.3737 23.8553 35.3799 23.8526 35.3843C23.8535 35.3825 23.8553 35.3799 23.8571 35.3746C23.8715 35.3428 23.8842 35.3031 23.8959 35.2564C23.951 35.0481 23.9591 34.8223 23.9212 34.577C23.8751 34.2849 23.774 34.0273 23.6178 33.8032C23.5491 33.7044 23.4868 33.6347 23.4317 33.5914L23.4344 33.5941C23.4209 33.5852 23.4037 33.5773 23.3839 33.5676C23.3161 33.5376 23.2394 33.5155 23.1545 33.5032C23.1247 33.4988 23.103 33.4961 23.0895 33.4953C23.1084 33.4961 23.1355 33.497 23.1707 33.4979C23.2845 33.5005 23.4317 33.4997 23.6132 33.4935C24.0368 33.4811 24.5976 33.4476 25.2939 33.3929C26.1365 33.3267 26.7939 33.2967 27.2653 33.3029C27.6392 33.3082 27.9652 33.3373 28.2425 33.3903C28.601 33.4591 28.9316 33.5747 29.2341 33.7361C29.5845 33.9241 29.8861 34.1658 30.1408 34.4614C30.568 34.959 30.8082 35.5299 30.8606 36.1757C30.9039 36.6998 30.8136 37.2275 30.5896 37.7586C30.4984 37.9748 30.3783 38.2077 30.2293 38.4565C30.0225 38.8015 29.7308 39.2277 29.3533 39.735L26.8671 37.9695L29.4382 39.615C28.6859 40.7373 27.846 41.624 26.9204 42.2743C25.8403 43.0322 24.6717 43.4601 23.4146 43.559Z" fill="#D44000"/>
<path d="M42.3978 31.2217C42.154 31.1388 41.9453 31.0823 41.772 31.0514C41.716 31.0417 41.669 31.0355 41.6302 31.032L41.6257 31.0311C41.7458 31.0232 41.8803 30.9853 42.0293 30.9173C42.2605 30.8114 42.4556 30.6606 42.6172 30.4647L40.2177 28.5871L42.7292 30.3191C42.8006 30.2203 42.8647 30.095 42.9234 29.9424C43.0851 29.5188 43.1221 29.0715 43.0354 28.5995C42.9089 27.9148 42.5676 27.3607 42.0113 26.9354C41.7042 26.7016 41.3782 26.5472 41.0305 26.4722C41.2527 26.5198 41.9625 26.5516 43.1609 26.5666C43.4228 26.5701 43.6332 26.5675 43.7931 26.5569C43.8427 26.5534 43.8798 26.5507 43.9051 26.5472C43.8852 26.5498 43.8536 26.556 43.812 26.5666C43.6739 26.601 43.5321 26.654 43.3858 26.7254C43.03 26.8984 42.7238 27.1419 42.4655 27.4569C42.014 28.0057 41.8009 28.6339 41.8243 29.3397C41.8415 29.8612 41.9905 30.335 42.2732 30.762L42.1892 30.6341L42.1178 30.4991C42.2976 30.8423 42.5278 31.1211 42.8096 31.3373C42.88 31.392 42.936 31.4291 42.9776 31.4511C42.8683 31.3946 42.6687 31.3161 42.3797 31.2155L42.3978 31.2217ZM44.4361 25.5555C45.0068 25.754 45.4791 25.949 45.853 26.1422C46.6667 26.5631 47.2465 27.1057 47.5933 27.7692L44.856 29.1342L47.4389 27.5072C47.7721 28.0118 47.9482 28.558 47.9681 29.1456C47.9934 29.9194 47.7576 30.6094 47.26 31.2155C46.7859 31.7926 46.1456 32.1826 45.3392 32.3846C44.7847 32.5231 44.0315 32.5858 43.0814 32.5717C41.4631 32.5514 40.3378 32.4728 39.7057 32.337C39.1449 32.2161 38.6518 31.9929 38.2255 31.6673C37.55 31.1511 37.1364 30.4832 36.9856 29.6627C36.8086 28.7018 37.0488 27.7666 37.7062 26.856L37.7604 26.781L37.8182 26.7104C38.2544 26.1784 38.789 25.7681 39.423 25.4778C39.9748 25.2255 40.5772 25.079 41.2292 25.0376C42.1738 24.9776 43.2368 25.1478 44.4171 25.5493L44.4361 25.5555ZM53.2837 29.8259C53.3631 31.2782 52.7292 32.6255 51.3799 33.8695C50.3188 34.8489 49.124 35.4895 47.7974 35.7904C46.8455 36.0065 45.2227 36.1874 42.9288 36.3321C41.8054 36.4036 40.9059 36.4406 40.2313 36.445C39.2451 36.4503 38.4955 36.3612 37.9808 36.1768C37.9726 36.1742 37.9672 36.1724 37.9645 36.1715C37.9745 36.175 37.988 36.1786 38.0043 36.183C38.1199 36.2139 38.249 36.2359 38.3926 36.2483C38.9236 36.2942 39.4366 36.198 39.9315 35.9589C40.4896 35.6898 40.9212 35.2901 41.2274 34.7598C41.5155 34.2595 41.6437 33.724 41.6121 33.154L38.5434 33.3146L41.3457 32.082L41.8252 33.1222L39.022 34.3548L41.7954 33.0596C41.9625 33.401 42.1034 33.6278 42.2172 33.7398C42.1919 33.7151 42.1467 33.6851 42.0826 33.6507C41.9499 33.5784 41.8009 33.5307 41.6365 33.506L41.1795 36.4759L41.5498 33.4946C41.5119 33.4902 41.4803 33.4884 41.4532 33.4884H41.4514C41.4586 33.4875 41.4676 33.4866 41.4775 33.4857C41.5679 33.4752 41.6862 33.4487 41.8307 33.4081C42.256 33.289 42.7852 33.0755 43.421 32.7693C45.2173 31.9029 46.4012 31.3999 46.9738 31.2605C48.1216 30.98 49.2992 31.1705 50.5049 31.8314C51.212 32.2196 51.7773 32.7455 52.2 33.4107C52.5802 34.0098 52.8195 34.6866 52.9161 35.4392C53.0118 36.1812 52.9558 36.8844 52.749 37.5488C52.5187 38.29 52.1187 38.9349 51.5506 39.4846C50.9112 40.1031 49.7553 40.8125 48.0828 41.6128C46.5493 42.3468 45.4177 42.8162 44.6889 43.0201C43.8265 43.2618 42.6832 43.3606 41.259 43.3165C39.6154 43.2671 38.1027 42.8312 36.7201 42.0098C35.3456 41.1928 34.1896 39.9805 33.254 38.3738C32.3798 36.8721 31.8343 35.2865 31.6203 33.6172L31.6131 33.5643L31.6086 33.5113C31.4514 31.8005 31.6203 30.26 32.1152 28.8915C32.5541 27.6766 33.245 26.4104 34.1896 25.0914C35.2471 23.6144 36.2929 22.5979 37.3269 22.043C38.4197 21.4562 39.8953 21.1792 41.7548 21.2109C43.44 21.2401 44.8732 21.4827 46.0562 21.9371L46.1068 21.9565L46.1556 21.9777C47.9572 22.7426 49.5042 23.7617 50.7975 25.0349C52.3643 26.5763 53.1925 28.1733 53.2837 29.8259ZM47.1454 30.1479C47.1463 30.1735 47.1481 30.1894 47.1508 30.1965C47.1399 30.1621 47.1183 30.1153 47.0857 30.0579C46.9575 29.8303 46.7408 29.5665 46.4346 29.2656C45.695 28.5377 44.7856 27.9439 43.7055 27.486L44.9301 24.7314L43.8039 27.5257C43.3099 27.336 42.5911 27.2328 41.6464 27.216C41.1741 27.2081 40.7867 27.2275 40.486 27.276C40.3893 27.291 40.3117 27.3078 40.253 27.3254C40.243 27.3289 40.2376 27.3307 40.2358 27.3316C40.2502 27.3254 40.2674 27.3175 40.2864 27.3069C40.2981 27.3007 40.3053 27.2963 40.3089 27.2936C40.2981 27.3016 40.2846 27.3113 40.2665 27.3254C40.2015 27.3775 40.1256 27.4472 40.0389 27.5354C39.7987 27.7798 39.5278 28.1133 39.227 28.5342C38.603 29.405 38.1641 30.1912 37.9112 30.8908C37.7144 31.4379 37.6539 32.1323 37.7315 32.9749L34.67 33.2431L37.7198 32.869C37.8327 33.7487 38.1253 34.593 38.5967 35.4039C39.0076 36.1089 39.4465 36.6003 39.9143 36.8782C40.374 37.1518 40.8869 37.2965 41.4514 37.3141C42.2352 37.3379 42.75 37.3159 42.9965 37.2462C43.3758 37.1403 44.1706 36.798 45.378 36.22C45.984 35.9298 46.4698 35.6774 46.8356 35.4612C46.9837 35.3739 47.1038 35.298 47.195 35.2336C47.2221 35.2142 47.2429 35.1992 47.2582 35.1868C47.2519 35.1913 47.2411 35.2018 47.2257 35.2168C47.0578 35.3792 46.9385 35.5742 46.8672 35.8027C46.8202 35.9545 46.8031 36.0833 46.8166 36.1874C46.832 36.3039 46.8853 36.4336 46.9774 36.5783C47.111 36.7891 47.2835 36.9524 47.4958 37.0688L47.4903 37.0644C47.5337 37.0812 47.5852 37.0962 47.6457 37.1094C47.9021 37.165 48.1749 37.1571 48.4639 37.0865C48.5054 37.0768 48.5361 37.0679 48.5569 37.0618C48.5361 37.0679 48.5045 37.0794 48.4639 37.0953C48.3401 37.1438 48.1767 37.2118 47.9744 37.3009C47.5192 37.5003 46.9087 37.7853 46.142 38.1541C45.1784 38.6191 44.3087 38.9605 43.533 39.1793C42.5315 39.4608 41.6229 39.5534 40.8084 39.4564L40.765 39.4511L40.7217 39.4449C38.8432 39.1687 37.3522 37.9044 36.2496 35.6501L36.2342 35.6192L35.5045 34.0363L35.4738 33.476C35.4413 32.8822 35.574 32.3273 35.8712 31.8111C36.1863 31.2649 36.6334 30.852 37.2104 30.5732C37.746 30.3156 38.3203 30.2123 38.9335 30.2653C39.2866 30.2962 39.6732 30.387 40.0949 30.5379C39.9522 30.4867 39.8195 30.4515 39.6948 30.432C39.6795 30.4294 39.6668 30.4276 39.6569 30.4267C39.6623 30.4276 39.6705 30.4276 39.6822 30.4285C39.7969 30.4373 39.9676 30.4409 40.1934 30.4391C40.7488 30.4356 41.5281 30.402 42.5315 30.3385C44.4903 30.215 45.7817 30.0826 46.4057 29.9406C46.6532 29.8841 46.9042 29.7385 47.1598 29.503C47.2248 29.443 47.2754 29.3909 47.3115 29.3486C47.3178 29.3406 47.3215 29.3362 47.3233 29.3336C47.316 29.3441 47.3079 29.3565 47.2989 29.3733C47.1797 29.5877 47.1282 29.8462 47.1454 30.1479Z" fill="#D44000"/>
<path d="M58.2539 22.2777C58.1166 22.1277 57.9495 21.9919 57.7508 21.871C57.2785 21.5834 56.7556 21.4475 56.1822 21.4651C55.7451 21.4775 55.3251 21.5904 54.9224 21.8022C54.4555 22.0483 54.0807 22.3924 53.798 22.8354C53.4756 23.3409 53.323 23.8906 53.3419 24.4853L53.3031 23.2421L54.1755 22.336C53.91 22.6113 53.7212 22.8989 53.6093 23.198C53.6129 23.1883 53.6246 23.1486 53.6445 23.0771C53.8097 22.4913 54.1394 21.9178 54.6352 21.3584C54.9296 21.0248 55.308 20.6657 55.7704 20.2811C56.7872 19.4358 57.7725 18.8755 58.7253 18.602C60.3662 18.1653 62.213 18.1211 64.2639 18.4705C65.3296 18.6523 66.2273 18.9073 66.9588 19.2382C68.0506 19.7314 68.8453 20.4143 69.3438 21.2869C69.9055 22.2354 70.1476 23.2051 70.069 24.1968C69.9814 25.3156 69.5055 26.2914 68.6421 27.1234C67.9043 27.8346 67.0509 28.296 66.081 28.5069C65.1715 28.7054 64.2269 28.6648 63.2489 28.386C62.7233 28.2369 62.3512 28.1769 62.1317 28.206C62.073 28.214 62.0261 28.2219 61.9927 28.2298H61.9918C62.0062 28.2254 62.0225 28.2201 62.0414 28.2122C62.2871 28.116 62.5155 27.9457 62.7287 27.7031C62.7621 27.6643 62.7901 27.6299 62.8118 27.599C62.8145 27.5963 62.8154 27.5946 62.8154 27.5946C62.8118 27.5999 62.8072 27.6061 62.8027 27.614C62.7621 27.6766 62.7115 27.7657 62.6483 27.8796C62.4885 28.1707 62.2898 28.5678 62.0514 29.0716L59.2617 27.8107L62.0938 28.9781C61.7055 29.8763 61.4824 30.4974 61.4228 30.8415C61.3551 31.235 61.3334 32.1632 61.3578 33.627C61.3885 35.4093 61.3677 36.5969 61.2955 37.1915C61.1401 38.4656 60.5965 39.4662 59.6654 40.1932L59.6112 40.2355L59.5552 40.2752C58.4562 41.0561 57.2821 41.4099 56.0314 41.3358C55.2917 41.2925 54.6117 41.0958 53.9904 40.7464C53.3772 40.4014 52.8651 39.9303 52.4524 39.3338L52.2528 39.0453L52.1264 38.7188C51.7922 37.8586 51.4319 36.1354 51.0445 33.5502C50.7167 31.3621 50.3771 29.7668 50.0267 28.7636C49.5517 27.4031 49.2555 26.3082 49.1381 25.4797C48.9466 24.1235 49.1362 22.9977 49.707 22.103C50.285 21.1987 51.1754 20.5581 52.3802 20.1831C53.5352 19.8231 54.5602 19.8028 55.4552 20.1222C56.1542 20.3711 56.8405 20.8501 57.5151 21.5587L55.2646 23.6039L57.3706 21.4166C57.7761 21.7889 58.0705 22.0766 58.2539 22.2777ZM53.6535 26.2614C53.593 26.1961 53.4286 26.0391 53.1586 25.7911L53.0837 25.7223L53.0141 25.6491C52.9545 25.5864 52.9166 25.5485 52.8994 25.5361C53.0114 25.6208 53.1604 25.6967 53.3465 25.7638C53.6634 25.8767 53.9624 25.9199 54.2423 25.8944C54.2803 25.8908 54.3083 25.8864 54.3272 25.8829C54.3101 25.8864 54.2839 25.8935 54.2486 25.9049C54.2775 25.8961 54.3272 25.8679 54.3995 25.822C54.6027 25.6897 54.7779 25.5088 54.9242 25.2803C55.0903 25.0191 55.1852 24.7685 55.2086 24.5276C55.2104 24.5118 55.2104 24.4985 55.2113 24.4879C55.2113 24.4897 55.2113 24.4941 55.2113 24.5012C55.2132 24.5418 55.2186 24.5938 55.2276 24.6582C55.2908 25.1056 55.4967 25.8273 55.8444 26.8226C56.3167 28.1751 56.7448 30.1277 57.1268 32.6803C57.4492 34.834 57.6985 36.1372 57.8746 36.5889L55 37.6539L57.5476 35.9739C57.4302 35.8037 57.2677 35.6598 57.06 35.5434C56.8441 35.4216 56.6247 35.3546 56.4016 35.3413C56.268 35.3334 56.1433 35.3484 56.0259 35.3863C55.9907 35.3978 55.96 35.4093 55.9347 35.4225L55.9392 35.4181L57.7472 37.8471L55.8291 35.5001C55.5997 35.6792 55.4254 35.891 55.3053 36.1354C55.2411 36.2669 55.2032 36.3816 55.1906 36.4813C55.2303 36.1566 55.2375 35.2381 55.2113 33.7267C55.1806 31.895 55.2303 30.6006 55.3613 29.8436C55.4994 29.0381 55.8562 27.9713 56.4296 26.6434L56.4504 26.5967L56.4721 26.5499C57.1178 25.185 57.6461 24.2682 58.0561 23.7997C58.7885 22.9633 59.8668 22.4489 61.291 22.2566C62.3774 22.1101 63.6038 22.231 64.9702 22.6201L64.9647 22.6245C64.8979 22.621 64.8239 22.628 64.7435 22.6448C64.5638 22.6845 64.4247 22.7524 64.3235 22.8495C64.2414 22.9289 64.1673 23.0321 64.1032 23.1583C64.0102 23.3392 63.956 23.5315 63.9397 23.7362C63.9271 23.8994 63.9397 24.0494 63.9786 24.1853C63.9876 24.218 63.9975 24.2453 64.0066 24.2674C64.0084 24.27 64.0084 24.2709 64.0093 24.2709C64.0066 24.2665 63.9948 24.2471 63.9749 24.2127C64.0806 24.3971 64.2034 24.5444 64.3443 24.6565C64.3723 24.6785 64.3958 24.6953 64.4157 24.7076C64.4102 24.7041 64.3976 24.6979 64.3777 24.6891C64.1348 24.5788 63.7447 24.4782 63.2082 24.3874C62.0568 24.1906 61.1401 24.1835 60.4574 24.3644L60.4628 24.3653C60.4258 24.3812 60.3806 24.4059 60.3283 24.4368C60.1639 24.5347 59.9724 24.6732 59.7548 24.855C59.5317 25.0403 59.3755 25.1832 59.2861 25.2847L59.2843 25.2864C59.3005 25.2653 59.3177 25.2406 59.3367 25.2114C59.436 25.0553 59.5146 24.8744 59.5724 24.6679C59.5083 24.8973 59.445 25.0941 59.3836 25.2573C59.2075 25.7302 58.9637 26.1282 58.6521 26.4511L56.4143 24.3935L59.4866 24.3018C59.5055 24.9194 59.3484 25.4894 59.0143 26.0126C58.7208 26.4723 58.3288 26.8314 57.8384 27.0899C57.3896 27.3264 56.8992 27.4516 56.3691 27.4675C55.7026 27.4878 55.0786 27.3211 54.4988 26.9673C54.1927 26.7811 53.9109 26.5455 53.6535 26.2614Z" fill="#D44000"/>
<path d="M74.7939 29.7226C74.8274 29.7553 74.8843 29.7924 74.9646 29.8347C75.1471 29.9318 75.3521 29.9926 75.5805 30.0173C75.8415 30.0447 76.0926 30.0209 76.3346 29.9459C76.4872 29.8973 76.6137 29.8374 76.713 29.7641C76.7365 29.7474 76.7564 29.7306 76.7726 29.7156H76.7735C76.7374 29.7597 76.695 29.8259 76.6471 29.9141C76.4836 30.2132 76.3301 30.627 76.1874 31.1573C75.9698 31.9637 76.0113 32.674 76.3102 33.289C76.3671 33.4063 76.415 33.4884 76.4529 33.536C76.4168 33.4919 76.3545 33.4416 76.2642 33.3851C76.0899 33.2766 75.8948 33.2069 75.6781 33.1778C75.4966 33.1531 75.3313 33.1593 75.1832 33.1981C75.2943 33.169 75.371 33.1434 75.4144 33.1222C75.3349 33.161 75.2437 33.2307 75.1425 33.3322C75.0558 33.4178 74.9863 33.5016 74.9348 33.5828L74.9285 33.5881C74.9881 33.4584 75.0531 33.2634 75.1245 33.0049C75.2347 32.6016 75.2039 31.9081 75.0324 30.9244C74.9439 30.4117 74.8427 30.0112 74.7289 29.7235C74.6991 29.6468 74.6747 29.5938 74.6567 29.563C74.6838 29.6079 74.7298 29.6609 74.7939 29.7226ZM79.1026 25.439C79.6688 25.9825 80.124 26.6937 80.469 27.5724C80.7273 28.2307 80.935 29.0124 81.093 29.9159C81.4145 31.7643 81.4046 33.3128 81.0614 34.5613C80.6947 35.8953 80.1836 36.8888 79.527 37.5417C78.8579 38.207 77.9349 38.694 76.7591 39.0029C76.1079 39.1714 75.4649 39.212 74.8292 39.1255C74.1582 39.0346 73.5323 38.807 72.9516 38.4444C72.0504 37.8814 71.3188 37.0212 70.7571 35.8653C69.8152 33.9287 69.6445 31.849 70.2424 29.6282C70.833 27.4383 71.7641 25.8802 73.0347 24.9528C74.0308 24.2258 75.1028 23.9241 76.2515 24.0476C77.3036 24.1596 78.2537 24.6237 79.1026 25.439ZM66.2173 31.0541C66.3148 28.7989 66.8955 26.7298 67.9575 24.847C69.1343 22.7603 70.7201 21.3142 72.7141 20.5086C73.9667 20.0022 75.3936 19.9148 76.9948 20.2474C78.2582 20.5095 79.6643 21.0451 81.214 21.8541C82.0196 22.2785 82.6924 22.6809 83.2333 23.0594C83.9314 23.5482 84.4706 24.0432 84.8517 24.5461C85.4116 25.2837 85.7132 26.099 85.7575 26.991C85.7972 27.7913 85.6211 28.5836 85.2283 29.368C85.2463 29.3327 85.2599 29.3027 85.2671 29.2797C85.2644 29.2877 85.2599 29.3044 85.2545 29.3283C85.2283 29.4377 85.2057 29.5832 85.1867 29.7641C85.1362 30.2467 85.1244 30.8785 85.1515 31.6567C85.2644 34.3928 84.7848 36.6735 83.7129 38.5017C82.5289 40.5222 80.7218 41.8889 78.2925 42.6018C76.4692 43.14 74.7289 43.1674 73.0708 42.6848C71.4444 42.211 69.9877 41.2669 68.7017 39.8543C67.6153 38.6482 66.8892 37.3582 66.5243 35.9827L66.5153 35.9483L66.5072 35.9139C66.2245 34.7333 66.1279 33.1134 66.2173 31.0541ZM72.3592 31.3091C72.2933 32.8196 72.3375 33.8987 72.4929 34.5445L69.5 35.2292L72.4748 34.4757C72.5949 34.9266 72.8686 35.3889 73.2957 35.8636C73.8069 36.4256 74.318 36.7803 74.8274 36.9294C75.3069 37.0688 75.8722 37.0424 76.5243 36.85C77.3885 36.5968 78.0062 36.1521 78.3792 35.5168C78.8642 34.6892 79.0737 33.4698 79.0078 31.8596C78.9707 30.8088 78.9924 29.9071 79.071 29.1527C79.173 28.1795 79.3853 27.3713 79.7068 26.7289C79.6363 26.8701 79.6065 27.0554 79.6174 27.2839C79.6336 27.6042 79.7321 27.883 79.9118 28.1212C79.9325 28.1486 79.9506 28.1698 79.966 28.1857C79.9623 28.1821 79.9524 28.1733 79.9389 28.1601C79.8702 28.1001 79.7754 28.0268 79.6535 27.9421C79.323 27.7101 78.8777 27.4472 78.3178 27.1516C77.2802 26.6098 76.4132 26.2666 75.7169 26.1219C75.4794 26.0725 75.2834 26.0513 75.1299 26.0575C75.092 26.0584 75.0631 26.0619 75.0423 26.0663C75.045 26.0654 75.0522 26.0628 75.064 26.0575C74.3984 26.3266 73.824 26.8895 73.3409 27.7454C72.7439 28.805 72.4161 29.9935 72.3592 31.3091Z" fill="#D44000"/>
<path d="M94.9193 30.0108C95.2968 30.0161 95.6364 29.9473 95.9362 29.8061C95.9895 29.7814 96.0355 29.7567 96.0726 29.7329L96.0662 29.7382C95.8892 29.8767 95.6391 30.1317 95.3149 30.504C94.5292 31.4067 93.8473 32.3472 93.2676 33.3257C93.0219 33.7395 92.8657 34.0395 92.7961 34.2257C92.8133 34.1798 92.8287 34.1004 92.8413 33.9883C92.8973 33.5013 92.7989 33.0204 92.5442 32.5457C92.4259 32.3243 92.2859 32.139 92.127 31.989C92.0981 31.9625 92.0728 31.9405 92.0493 31.9228L92.0538 31.9255C92.1811 32.0102 92.3952 32.1231 92.695 32.2625C93.3479 32.5678 93.8636 32.7575 94.2438 32.8316C94.391 32.8625 94.4822 32.8775 94.5156 32.8748C94.4298 32.881 94.3314 32.911 94.2221 32.9648C94.0903 33.031 93.9846 33.1131 93.9033 33.2128C93.8862 33.2339 93.8744 33.2507 93.8672 33.2622C93.8762 33.2472 93.8862 33.2225 93.8988 33.1889C94.1625 32.5007 94.1788 31.614 93.9485 30.5288C93.8537 30.0849 93.7516 29.7832 93.6423 29.6226C93.6577 29.6456 93.6911 29.6764 93.7426 29.7161C93.841 29.7911 93.9521 29.8467 94.0767 29.8838L94.9618 27.0083L94.9193 30.0108ZM95.0051 24.0049L95.4359 24.0111L95.8477 24.1328C97.0407 24.4831 98.0079 25.1996 98.7493 26.2804C99.3047 27.0904 99.7102 28.0997 99.9676 29.3085C100.438 31.5275 100.343 33.4986 99.6822 35.2236C99.1521 36.6626 98.2635 37.6932 97.0163 38.3152C95.8369 38.9028 94.5111 39.0378 93.0391 38.7211C92.1577 38.549 91.1597 38.2023 90.0453 37.6817C89.4601 37.4091 88.9743 37.1435 88.5859 36.8841C87.905 36.4297 87.4101 35.9127 87.0985 35.3321C86.6055 34.4118 86.5784 33.361 87.0173 32.1787C87.2096 31.659 87.5203 31.0387 87.9465 30.3179C88.7115 29.0262 89.6064 27.7918 90.6305 26.6148C91.2112 25.9469 91.7449 25.4237 92.2317 25.0443C93.1366 24.3384 94.0614 23.9926 95.0051 24.0049ZM100.182 40.9419C99.1548 41.6901 98.2075 42.1515 97.3405 42.328C96.6975 42.4586 95.5668 42.5124 93.9485 42.4903C92.1035 42.4647 90.3253 42.0501 88.6148 41.2454C88.1416 41.0222 87.765 40.8757 87.4842 40.8033C87.4444 40.7936 87.4119 40.7857 87.3857 40.7813H87.3902C87.504 40.7892 87.6368 40.7769 87.7885 40.7433C87.0109 40.9145 86.2505 40.9066 85.5073 40.7178C84.7758 40.5325 84.1111 40.1848 83.5151 39.6757C82.938 39.1922 82.5208 38.5367 82.2634 37.7082C82.1108 37.2185 82.0123 36.6476 81.9681 35.9956C81.9058 35.0903 81.8561 32.6296 81.8191 28.6124C81.782 24.5775 81.8245 21.6641 81.9482 19.8739L81.9509 19.8342L81.9554 19.7945C82.0575 18.7331 82.2191 17.8507 82.4404 17.1475C82.8116 15.9679 83.413 15.1023 84.2457 14.55L85.9724 17.0346L84.1861 14.5906C85.1361 13.928 86.1485 13.6042 87.225 13.6192C88.2852 13.6341 89.2822 13.9774 90.2169 14.6488C90.8039 15.0573 91.2537 15.6097 91.5652 16.3058C91.7928 16.814 91.9283 17.3787 91.9725 17.9999C92.0186 18.6528 91.9996 20.1854 91.9165 22.5985L91.7034 27.5615L88.6329 27.4354L86.2379 25.5543L87.1311 24.4681L89.527 26.3501L87.0299 24.5978C87.7804 23.577 88.6871 22.7 89.7491 21.9676C90.8482 21.2097 91.9518 20.6989 93.0589 20.4359C94.2781 20.1509 95.4702 20.1421 96.6352 20.4077C97.7641 20.6645 98.8288 21.1709 99.8303 21.927C101.641 23.2929 102.933 25.1978 103.708 27.6409C104.461 30.0205 104.518 32.4293 103.88 34.8698C103.488 36.3644 103.044 37.537 102.544 38.3867C101.972 39.359 101.185 40.2113 100.182 40.9419ZM96.507 36.1271C96.8285 35.8924 97.0642 35.6488 97.2132 35.3965C97.4335 35.0197 97.671 34.3483 97.9239 33.3813C98.2761 32.0366 98.2463 30.7149 97.8354 29.417C97.4444 28.1844 96.8574 27.2712 96.0735 26.6801C95.7773 26.4569 95.4991 26.3157 95.239 26.2566C95.0159 26.2054 94.773 26.2107 94.5111 26.2716C94.1616 26.3545 93.7561 26.5557 93.2947 26.8742C92.7952 27.2183 92.3717 27.6277 92.0231 28.1015L91.9743 28.1677L85.1713 36.4332L85.7728 22.3947C85.8496 20.188 85.8712 18.861 85.8396 18.4145C85.8451 18.486 85.8767 18.5857 85.9336 18.7145C86.0753 19.0304 86.2885 19.288 86.5738 19.4866C86.6 19.5051 86.6443 19.5254 86.7066 19.5483C86.8394 19.5968 86.9829 19.6224 87.1383 19.6242C87.2981 19.6268 87.4489 19.6039 87.5889 19.5563C87.6648 19.5307 87.7208 19.5042 87.7578 19.4786L87.7289 19.4989L87.6991 19.5183C87.9655 19.3419 88.1669 19.1398 88.3024 18.9131C88.3213 18.8804 88.3349 18.8557 88.343 18.8372C88.3358 18.8531 88.3267 18.8778 88.3159 18.9122C88.2184 19.2236 88.138 19.7045 88.0748 20.3574L85.0151 20.0759L88.082 20.278C87.9691 21.9156 87.9303 24.6763 87.9664 28.5585C88.0025 32.4593 88.0477 34.8045 88.1019 35.5941C88.1145 35.7891 88.129 35.9118 88.1452 35.9629C88.1217 35.8879 88.0829 35.8032 88.0287 35.7088C87.9068 35.498 87.7515 35.3136 87.5618 35.1547C87.4282 35.04 87.2575 34.9571 87.0507 34.9042C86.833 34.8495 86.6289 34.8424 86.4384 34.8848C87.2187 34.7127 88.0865 34.7489 89.0411 34.9933C89.7049 35.1636 90.4517 35.4433 91.2817 35.8341C92.1766 36.255 93.0942 36.472 94.0352 36.4844C94.6791 36.4932 95.2011 36.4906 95.603 36.4756C95.8856 36.4659 96.0482 36.4562 96.0915 36.4473C96.0274 36.4606 95.9741 36.4747 95.9335 36.4906C95.9407 36.487 95.9588 36.4782 95.9877 36.4632C96.1249 36.3918 96.2974 36.2797 96.507 36.1271Z" fill="#D44000"/>
<path d="M109.841 32.0803C109.349 32.0617 108.903 32.1605 108.505 32.3767C108.382 32.4438 108.29 32.5055 108.227 32.5638C108.326 32.4729 108.483 32.2761 108.699 31.9744C109.222 31.2438 109.647 30.455 109.975 29.6071C110.159 29.1307 110.298 28.7389 110.392 28.4328C110.429 28.311 110.457 28.2113 110.475 28.1328C110.48 28.1125 110.483 28.0966 110.485 28.0869C110.482 28.1001 110.481 28.1187 110.478 28.1434L113.538 28.4275L110.467 28.3092C110.456 28.5757 110.507 28.8316 110.62 29.0751C110.7 29.248 110.796 29.3857 110.908 29.4889L113.02 27.3078L111.564 29.9521C111.418 29.8753 111.319 29.8348 111.265 29.8303C111.327 29.8356 111.388 29.8251 111.449 29.7986C111.212 29.9027 110.981 30.1559 110.755 30.5574C110.52 30.9765 110.423 31.3603 110.466 31.707L107.416 32.0732L110.451 31.6003C110.449 31.5906 110.448 31.5817 110.446 31.5756C110.446 31.5765 110.447 31.5791 110.449 31.5835C110.458 31.6117 110.473 31.6479 110.495 31.6912C110.568 31.8403 110.68 32.015 110.831 32.2161C110.904 32.3123 110.968 32.3908 111.023 32.4499C111.039 32.4667 111.051 32.4791 111.06 32.4879C111.057 32.4844 111.05 32.4782 111.038 32.4694C110.953 32.4023 110.846 32.3388 110.717 32.2805C110.449 32.1588 110.157 32.0926 109.841 32.0803ZM109.6 38.0818C108.731 38.0482 107.917 37.7306 107.16 37.1298C106.731 36.7883 106.306 36.3392 105.885 35.7807C105.055 34.6813 104.554 33.6031 104.38 32.5461L104.372 32.4932L104.365 32.4394C104.16 30.808 104.495 29.2163 105.369 27.6634C106.253 26.092 107.436 24.9794 108.917 24.3256C109.837 23.9197 110.8 23.7609 111.808 23.8482C112.7 23.9259 113.59 24.1976 114.478 24.6644L114.837 24.8532L115.133 25.1276C115.607 25.5652 115.97 26.0567 116.222 26.602C116.507 27.2196 116.636 27.8663 116.609 28.5448L116.606 28.6278L116.598 28.7107C116.532 29.3883 116.242 30.3941 115.726 31.7282C115.217 33.0455 114.554 34.2755 113.736 35.4172C113.282 36.0516 112.855 36.5536 112.454 36.9242C111.578 37.735 110.627 38.1206 109.6 38.0818ZM122.215 31.7864C122.82 35.3095 123.104 37.5162 123.068 38.4082C123.006 39.9699 122.476 41.1664 121.478 41.9984C120.553 42.7686 119.351 43.126 117.872 43.0686C117.138 43.0413 116.476 42.8983 115.886 42.6407C115.088 42.2931 114.464 41.769 114.011 41.0693C113.716 40.6123 113.47 40.0035 113.273 39.2438C113.133 38.7003 112.999 38.0235 112.872 37.2153C112.772 36.5765 112.689 36.116 112.621 35.8319C112.611 35.7904 112.603 35.7604 112.598 35.7401C112.604 35.763 112.616 35.7957 112.633 35.8389C112.704 36.0163 112.802 36.1919 112.925 36.3657C113.096 36.6048 113.301 36.8148 113.541 36.9956C114.052 37.3821 114.631 37.5877 115.279 37.6124C115.837 37.6336 116.36 37.5144 116.848 37.2559C117.008 37.1712 117.158 37.0733 117.296 36.9639C117.386 36.8924 117.464 36.8218 117.531 36.7521C117.539 36.7433 117.546 36.7371 117.55 36.7318C117.548 36.7336 117.545 36.738 117.54 36.7433C117.52 36.7671 117.494 36.798 117.463 36.8359C117.295 37.0442 117.045 37.3742 116.714 37.8268L114.215 36.0772L116.76 37.7615C115.855 39.0664 114.795 40.0529 113.578 40.7234C112.275 41.4408 110.854 41.7699 109.314 41.7107C107.777 41.6525 106.377 41.2105 105.115 40.3855C103.95 39.6258 102.947 38.5609 102.106 37.1906C100.934 35.2398 100.315 33.4161 100.25 31.7203C100.184 29.99 100.608 28.281 101.525 26.5949C102.346 25.0826 103.382 23.7609 104.636 22.6298C105.991 21.3751 107.297 20.5819 108.554 20.2502L109.355 23.1494L108.478 20.2722C109.967 19.8381 111.471 19.7649 112.993 20.0516C114.425 20.3216 115.838 20.9084 117.23 21.8119C118.928 22.9165 120.051 24.0159 120.598 25.1091C120.852 25.5961 121.12 26.4502 121.401 27.6713C121.636 28.6948 121.906 30.0598 122.211 31.767L122.215 31.7864ZM116.156 32.8002C115.868 31.1882 115.617 29.9177 115.403 28.9886C115.304 28.5607 115.217 28.2175 115.141 27.9598C115.111 27.8619 115.086 27.7843 115.065 27.7269C115.061 27.7163 115.059 27.711 115.059 27.711C115.068 27.7331 115.074 27.7454 115.076 27.7472C115.092 27.7807 115.108 27.809 115.123 27.8319L115.12 27.8284C115.077 27.7763 115.013 27.7119 114.928 27.6334C114.669 27.3952 114.303 27.1225 113.831 26.8155C113.122 26.3558 112.455 26.0673 111.829 25.949C111.293 25.8476 110.761 25.874 110.233 26.0276L110.195 26.039L110.157 26.0487C110.093 26.0655 109.979 26.1273 109.812 26.2331C109.527 26.4158 109.193 26.6849 108.809 27.0396C108.068 27.7093 107.449 28.4989 106.955 29.4104C106.555 30.1453 106.368 30.8406 106.393 31.4944C106.419 32.1835 106.747 33.0526 107.377 34.1008C107.745 34.7007 108.13 35.1313 108.53 35.3925C108.832 35.5892 109.173 35.6951 109.555 35.7101C109.933 35.7242 110.268 35.6519 110.559 35.4913C110.937 35.2839 111.307 34.9178 111.671 34.3928L111.694 34.3602L111.717 34.3275C112.104 33.8008 112.411 33.3967 112.637 33.1161C112.789 32.9282 112.924 32.7729 113.04 32.6511C113.738 31.9214 114.564 31.5747 115.519 31.6109C116.182 31.6365 116.776 31.8473 117.302 32.2452C117.557 32.4385 117.779 32.6652 117.966 32.9273C118.122 33.147 118.254 33.3905 118.361 33.6578C118.45 33.8819 118.533 34.1528 118.609 34.4722C118.711 34.9046 118.824 35.516 118.949 36.3057C119.046 36.9251 119.14 37.4139 119.233 37.7721C119.266 37.8991 119.295 37.9944 119.318 38.058C119.302 38.0156 119.266 37.9512 119.209 37.863C119 37.5383 118.727 37.3027 118.39 37.1562C118.3 37.1165 118.216 37.0892 118.138 37.0733C118.122 37.0706 118.108 37.068 118.097 37.0671C118.099 37.0671 118.105 37.0671 118.113 37.068C118.16 37.0698 118.196 37.0698 118.221 37.068C118.205 37.0689 118.18 37.0733 118.146 37.0821C117.92 37.135 117.702 37.2506 117.488 37.4289C117.227 37.6468 117.047 37.8912 116.95 38.1612C116.933 38.2071 116.922 38.2424 116.918 38.2697C116.922 38.2494 116.924 38.2177 116.926 38.1727C116.932 38.0015 116.88 37.4994 116.767 36.6683C116.636 35.7013 116.431 34.406 116.152 32.7808L116.156 32.8002Z" fill="#D44000"/>
<path d="M139.698 41.2531C139.656 41.898 139.514 42.4901 139.272 43.0283C138.974 43.6909 138.542 44.2441 137.976 44.6862C137.012 45.4414 135.806 45.7749 134.36 45.6849L134.004 45.6629L133.662 45.5623C133.077 45.3885 132.468 45.0488 131.835 44.5415C131.42 44.2088 130.949 43.7721 130.422 43.2321C129.508 42.2951 128.348 41.0325 126.939 39.4452C126.244 38.6635 125.718 38.067 125.358 37.655C124.882 37.1106 124.586 36.7409 124.471 36.5468L127.131 35.0424L130.198 35.2321L130.081 37.0471C129.924 39.4523 129.043 41.1578 127.435 42.1636C126.899 42.4989 126.333 42.7159 125.736 42.8139C125.079 42.9215 124.429 42.8809 123.785 42.6904C122.814 42.4036 121.944 41.7966 121.177 40.8701L123.568 38.9829L121.261 40.9672C120.793 40.4484 120.463 39.7964 120.269 39.0102C120.148 38.5135 120.074 37.9356 120.05 37.2765C120.013 36.2821 120.09 33.3916 120.281 28.6051C120.44 24.0497 120.446 21.1292 120.297 19.8436C120.214 19.0107 120.17 18.3155 120.165 17.7578C120.157 17.0158 120.22 16.4 120.353 15.9112C120.548 15.1982 120.898 14.5797 121.403 14.0548C121.88 13.5589 122.461 13.1848 123.148 12.9333C124.253 12.5266 125.348 12.4701 126.429 12.7639C127.538 13.0648 128.431 13.6551 129.109 14.5347C129.523 15.0721 129.829 15.8344 130.026 16.8217C130.151 17.4561 130.26 18.2749 130.353 19.2763L127.291 19.5445L130.344 19.2013C130.577 21.1795 130.643 22.9432 130.543 24.4908L130.365 27.2304L127.297 27.0407L125.205 24.8411C127.255 22.9794 128.873 21.535 130.061 20.508C131.376 19.3698 132.27 18.664 132.744 18.3905L133.558 17.9202L134.502 17.9784C134.989 18.0084 135.497 18.1461 136.024 18.3914C136.305 18.5219 136.621 18.6949 136.972 18.911C137.971 19.5269 138.65 20.2027 139.009 20.9395L136.233 22.2294L138.877 20.6977C139.391 21.5456 139.588 22.4562 139.467 23.4285C139.37 24.2129 139.061 24.9734 138.543 25.7084C137.946 26.5537 136.653 27.8674 134.664 29.6497L130.897 33.0528L128.811 30.8479L131.15 28.8997L135.114 33.4437C136.848 35.4942 137.976 36.8918 138.5 37.6347C139.374 38.8761 139.774 40.0822 139.698 41.2531ZM133.563 40.8737C133.551 41.0616 133.567 41.2125 133.611 41.3263C133.588 41.2689 133.53 41.1728 133.437 41.0395C133.015 40.4405 132.014 39.207 130.436 37.34L124.556 30.6009L130.509 25.224C132.157 23.747 133.148 22.7721 133.482 22.2991L133.484 22.2947C133.475 22.3124 133.465 22.3327 133.455 22.3574C133.41 22.4588 133.381 22.5744 133.364 22.7041C133.317 23.0844 133.392 23.4364 133.588 23.7611L133.517 23.6429L133.456 23.5185C133.585 23.7814 133.73 23.9835 133.894 24.1246C133.867 24.1026 133.801 24.0576 133.693 23.9914C133.549 23.9023 133.446 23.8432 133.384 23.815C133.57 23.9014 133.813 23.9535 134.114 23.972L134.308 20.9757L135.872 23.5608C135.899 23.545 135.917 23.5335 135.928 23.5264C135.91 23.5388 135.885 23.5564 135.852 23.5811C135.757 23.6517 135.633 23.7479 135.482 23.8697C135.142 24.1432 134.693 24.5217 134.136 25.0043C132.986 25.9987 131.405 27.4104 129.391 29.2403L123.743 34.3701L124.407 24.1114C124.485 22.9185 124.428 21.5112 124.238 19.8869L124.233 19.8498L124.23 19.8119C124.156 19.0152 124.077 18.4002 123.991 17.9678C123.962 17.824 123.939 17.7243 123.92 17.6679C123.967 17.8073 124.06 17.967 124.199 18.1478C124.357 18.3534 124.553 18.4884 124.785 18.5511C124.991 18.6066 125.166 18.6084 125.311 18.5546C125.516 18.4796 125.706 18.3508 125.881 18.169C126.085 17.9581 126.222 17.7217 126.293 17.4587C126.307 17.4102 126.316 17.3679 126.321 17.3326L126.322 17.3282C126.321 17.3343 126.32 17.3432 126.319 17.3537C126.313 17.4385 126.31 17.554 126.311 17.6996C126.316 18.0825 126.346 18.5731 126.406 19.1704C126.588 20.7471 126.594 23.9702 126.424 28.8389C126.239 33.4746 126.162 36.2142 126.193 37.0576C126.203 37.3179 126.221 37.5015 126.248 37.61C126.241 37.58 126.224 37.5359 126.196 37.4776C126.121 37.3126 126.013 37.1529 125.873 36.9977L125.917 37.0453L125.957 37.0947C125.983 37.1256 126.005 37.1494 126.022 37.1671L126.023 37.1679C126.016 37.1618 126.008 37.1547 125.998 37.1476C125.884 37.0621 125.74 36.9932 125.563 36.9412C125.289 36.86 125.006 36.8432 124.717 36.8909C124.488 36.9288 124.289 37.0003 124.12 37.1062C124.024 37.1662 123.942 37.2359 123.877 37.3153C123.846 37.3541 123.826 37.3815 123.818 37.3991C123.881 37.2579 123.923 37.0144 123.946 36.6677L124.705 24.954L129.791 33.5381C129.72 33.4181 129.651 33.3166 129.582 33.2328C129.595 33.2478 129.617 33.2752 129.651 33.314C129.736 33.4146 129.863 33.561 130.032 33.7543C130.382 34.1548 130.899 34.7398 131.583 35.5109C132.929 37.0277 134.026 38.2205 134.872 39.0896C135.226 39.4514 135.513 39.7205 135.733 39.8978C135.789 39.9419 135.825 39.9693 135.841 39.979C135.739 39.9172 135.608 39.8625 135.446 39.8149L134.555 42.6886L134.749 39.6914C134.779 39.6931 134.801 39.694 134.813 39.6931C134.788 39.6949 134.755 39.7002 134.715 39.7099C134.515 39.7558 134.321 39.8519 134.133 39.9993C133.913 40.1713 133.751 40.3752 133.644 40.6116C133.595 40.7228 133.568 40.8101 133.563 40.8737Z" fill="#D44000"/>
<path d="M144.212 29.9745C144.127 29.7584 144.051 29.589 143.984 29.4637C143.968 29.4328 143.956 29.4116 143.949 29.401C143.968 29.4293 143.995 29.4645 144.03 29.506C144.224 29.7301 144.454 29.9013 144.718 30.0169C144.875 30.0857 145.02 30.1263 145.152 30.1369C145.554 30.1704 145.939 30.0875 146.308 29.8898C146.588 29.7389 146.802 29.5519 146.947 29.3296L144.358 27.7114L147.001 29.2431C146.989 29.2643 146.979 29.2819 146.971 29.2969L146.972 29.2925C146.996 29.2334 147.015 29.1601 147.027 29.0728C147.086 28.6837 147.01 28.3034 146.8 27.9302C146.735 27.8146 146.681 27.7361 146.641 27.6937C146.7 27.7555 146.795 27.8393 146.924 27.9452C147.278 28.2372 147.784 28.6043 148.443 29.0446C150.154 30.1898 151.461 31.2768 152.364 32.3065C153.432 33.525 154.12 34.8529 154.429 36.2902C154.743 37.753 154.719 39.0209 154.356 40.0912C153.972 41.2214 153.161 42.2626 151.921 43.2155L150.021 40.8544L151.992 43.159C150.144 44.6677 148.142 45.4362 145.985 45.4654C143.923 45.4936 141.845 44.8301 139.749 43.4757C138.843 42.8978 138.096 42.312 137.509 41.7182C136.747 40.9479 136.229 40.1379 135.954 39.2874C135.58 38.1298 135.654 37.0198 136.178 35.9575C136.601 35.0964 137.296 34.3658 138.26 33.7658L138.296 33.7429L140.978 32.1741L144.583 34.6605L144.622 34.6896C145.013 34.9781 145.352 35.1996 145.638 35.354C145.804 35.4431 145.908 35.4925 145.951 35.5022C145.963 35.5049 145.972 35.5067 145.979 35.5075C145.978 35.5075 145.976 35.5075 145.973 35.5075C145.942 35.5049 145.905 35.5058 145.863 35.5093C145.711 35.5243 145.562 35.5711 145.414 35.6514C145.45 35.6319 145.471 35.6196 145.479 35.6143C145.427 35.6487 145.367 35.6972 145.302 35.759C145.099 35.946 144.929 36.171 144.791 36.434C144.466 37.0534 144.389 37.7063 144.558 38.3936C144.61 38.6009 144.679 38.7862 144.767 38.9486C144.778 38.9671 144.786 38.9821 144.793 38.9936C144.791 38.99 144.787 38.9839 144.78 38.9733C144.712 38.8718 144.601 38.7218 144.446 38.5233L146.891 36.704L144.592 38.6953C144.288 38.3618 143.496 37.7389 142.215 36.8275C140.585 35.6681 139.399 34.6887 138.656 33.8911L138.618 33.8497L138.581 33.8073C137.781 32.88 137.261 32.0815 137.023 31.4109C136.779 30.7218 136.686 29.8281 136.745 28.7287L136.747 28.6802L136.752 28.6316C136.915 26.7558 137.621 25.0441 138.871 23.4966C140.197 21.8537 141.771 20.8417 143.595 20.4605L144.239 23.3969L143.516 20.4781C144.517 20.2417 145.701 20.247 147.067 20.494C148.338 20.7243 149.368 21.0552 150.157 21.4875C150.819 21.8502 151.417 22.4113 151.955 23.1719C152.326 23.6977 152.693 24.3533 153.056 25.1385C153.4 25.8832 153.658 26.5379 153.83 27.1035C154.073 27.902 154.167 28.6149 154.113 29.2431C154.049 29.9851 153.81 30.6733 153.395 31.3077C153.042 31.8486 152.574 32.3241 151.993 32.7326L151.937 32.7724L151.88 32.8085C150.608 33.622 149.355 33.9088 148.118 33.6706C146.97 33.4482 146.055 32.9232 145.375 32.0956C144.965 31.5971 144.577 30.8904 144.212 29.9745ZM149.94 27.7934C150.028 28.0149 150.107 28.1922 150.176 28.3246C150.196 28.3625 150.212 28.3908 150.223 28.4084C150.213 28.3917 150.195 28.3669 150.168 28.3361C150.021 28.157 149.85 28.014 149.652 27.9081C149.53 27.842 149.416 27.7987 149.31 27.7784C149.024 27.7229 148.762 27.7299 148.526 27.7979C148.485 27.8093 148.454 27.8208 148.433 27.8305C148.452 27.8217 148.478 27.8058 148.514 27.7837L150.197 30.2957L148.401 27.8596C148.345 27.8984 148.283 27.9708 148.213 28.0767C148.084 28.2752 148.009 28.4949 147.987 28.7358C147.977 28.8513 147.978 28.944 147.989 29.011C147.983 28.9713 147.966 28.9052 147.938 28.8152C147.845 28.509 147.684 28.1075 147.454 27.6108C147.242 27.1538 147.056 26.8114 146.894 26.582C146.871 26.5485 146.85 26.522 146.833 26.5008L146.834 26.5C146.912 26.5776 147.017 26.6526 147.15 26.7258C146.952 26.6173 146.552 26.5088 145.948 26.3994C145.642 26.3447 145.382 26.3138 145.168 26.3094C145.058 26.3067 144.988 26.3094 144.961 26.3156L144.921 26.3253L144.882 26.3332C144.503 26.4126 144.109 26.7064 143.697 27.2164C143.209 27.8208 142.935 28.4614 142.877 29.139L139.814 28.8857L142.884 29.0419C142.871 29.2731 142.87 29.4548 142.879 29.5881C142.881 29.6057 142.882 29.6198 142.884 29.6313L142.883 29.6278C142.874 29.5757 142.856 29.514 142.832 29.4434C142.804 29.3657 142.777 29.304 142.751 29.2572C142.759 29.2731 142.778 29.3004 142.806 29.341C142.913 29.4954 143.071 29.6931 143.28 29.9339L140.931 31.8706L143.205 29.851C143.665 30.346 144.542 31.0536 145.833 31.9721C147.474 33.1394 148.593 34.0526 149.191 34.7117L149.267 34.7955L149.337 34.8846C149.584 35.2014 149.783 35.4731 149.934 35.6999C150.234 36.1507 150.434 36.5787 150.534 36.9819C150.721 37.7398 150.631 38.4695 150.262 39.1727C150.08 39.5203 149.835 39.8362 149.527 40.1203C149.236 40.3894 148.865 40.6479 148.414 40.8941C147.268 41.5196 145.987 41.6732 144.571 41.3546C143.5 41.1138 142.282 40.4891 140.916 39.4815L142.769 37.086L140.997 39.5388L139.068 38.2083L140.84 35.7555L142.419 38.3318L141.491 38.8745L139.912 36.2981L141.564 38.8303C141.534 38.8489 141.511 38.8639 141.495 38.8771L141.493 38.878C141.499 38.8736 141.505 38.8674 141.512 38.8603C141.587 38.7853 141.656 38.6856 141.716 38.5621C141.808 38.3751 141.861 38.1757 141.873 37.963C141.882 37.7866 141.863 37.6251 141.816 37.4777C141.796 37.4169 141.779 37.3754 141.764 37.3542C141.797 37.4028 141.852 37.4663 141.929 37.5448C142.196 37.8139 142.599 38.1218 143.14 38.4668C144.183 39.14 145.102 39.4709 145.899 39.4603C146.602 39.4506 147.319 39.1471 148.051 38.5498L148.086 38.5215L148.121 38.4942C148.319 38.3424 148.462 38.2118 148.554 38.1015C148.564 38.0892 148.573 38.0786 148.579 38.0698L148.577 38.0733C148.557 38.1077 148.538 38.1501 148.521 38.2021C148.509 38.2374 148.501 38.2639 148.498 38.2833C148.502 38.2639 148.503 38.233 148.503 38.1907C148.501 38.0177 148.471 37.7954 148.413 37.5236C148.32 37.0904 148.08 36.6537 147.695 36.2134C147.143 35.5843 146.235 34.8467 144.969 33.9997C144.14 33.4456 143.469 32.9568 142.957 32.5341C142.235 31.9377 141.721 31.3686 141.416 30.8277C140.96 30.0204 140.804 29.1451 140.946 28.2011C141.046 27.5323 141.302 26.8591 141.714 26.1806L141.741 26.1364L141.769 26.0941C142.185 25.4579 142.709 24.9691 143.342 24.6295C144.061 24.2421 144.837 24.0833 145.671 24.1521C146.234 24.1989 146.756 24.3277 147.236 24.5377C147.823 24.7953 148.321 25.1606 148.729 25.6326C149.161 26.1338 149.566 26.8547 149.94 27.7934Z" fill="#D44000"/>
<path d="M23.1707 40.5641C24.5479 40.4564 25.7798 39.5918 26.8662 37.9701C27.502 37.116 27.8126 36.5972 27.7982 36.4136C27.7855 36.2778 27.0323 36.2681 25.5368 36.3854C24.0431 36.5036 23.0949 36.5319 22.6903 36.4701C22.2875 36.4092 21.8974 36.2337 21.5199 35.9443C21.1442 35.6531 20.9311 35.3478 20.8805 35.0302C20.8317 34.7125 20.9311 34.3376 21.1767 33.9043C21.4241 33.472 21.8016 33.195 22.3074 33.075C22.8149 32.9532 24.1424 32.8023 26.2882 32.6232C28.4339 32.445 29.7434 32.3823 30.2185 32.4362C30.6926 32.4909 31.2317 32.7591 31.8368 33.2408C32.441 33.7235 32.7588 34.2273 32.7905 34.7514C32.8212 35.2763 32.2712 36.456 31.1396 38.2912C30.0098 40.1247 29.0526 41.4146 28.2678 42.1628C27.4803 42.866 26.7452 43.3592 26.0642 43.6416C25.3851 43.9257 24.4856 44.1224 23.3658 44.231C20.96 44.3977 18.7709 43.6292 16.7985 41.9264C15.5071 40.8111 14.5968 39.6094 14.0676 38.3195C13.5402 37.0304 13.1572 34.9375 12.9188 32.0409C12.6822 29.1451 12.8538 26.7787 13.4318 24.9435C14.0098 23.1065 15.0799 21.7019 16.6432 20.7296C17.269 20.3343 17.8136 20.0961 18.276 20.0131C18.7402 19.9311 19.7805 19.8737 21.397 19.8402C23.0154 19.8049 24.277 19.8667 25.1828 20.0237C26.0904 20.2311 27.0432 20.6855 28.0402 21.386C29.039 22.0875 29.8112 22.8295 30.3557 23.613C30.9021 24.3965 31.1947 24.8791 31.2335 25.06C31.2742 25.2417 31.1306 25.6441 30.8037 26.267C30.4785 26.8882 29.9855 27.1793 29.3262 27.1387C28.666 27.099 28.033 26.6782 27.4261 25.8753C26.7226 25.0141 26.1004 24.445 25.5585 24.1671C25.0184 23.8874 23.9447 23.6836 22.3363 23.5565C20.727 23.4295 19.627 23.4815 19.0346 23.7118C18.0782 24.0841 17.3918 25.2276 16.9755 27.1423C16.5583 29.0551 16.4878 31.1144 16.7624 33.3185C17.0369 35.5234 17.633 37.1998 18.5505 38.3477C19.049 39.0182 19.7616 39.5706 20.689 40.0029C21.6183 40.4335 22.4455 40.6205 23.1707 40.5641Z" fill="white"/>
<path d="M43.4085 28.3868C41.8308 27.8504 40.766 27.9174 40.2151 28.588C39.8873 29.0397 39.9379 29.3115 40.3669 29.4033C40.7949 29.495 41.7143 29.5506 43.1231 29.5691C44.4831 29.5903 45.0602 29.4447 44.8534 29.1315C44.7496 28.9321 44.2682 28.6833 43.4085 28.3868ZM50.2142 29.9856C50.2431 30.5132 49.9288 31.0797 49.2713 31.6867C48.6139 32.2937 47.8896 32.6872 47.1003 32.8655C46.3128 33.0446 44.8552 33.2008 42.7293 33.3349C40.6053 33.469 39.3744 33.4778 39.0375 33.3596C38.7025 33.2396 38.5372 33.2255 38.5426 33.3172L39.0231 34.3548C39.6561 35.6492 40.375 36.355 41.1796 36.4724C41.9834 36.5694 43.1854 36.2324 44.7848 35.463C46.3832 34.6919 47.3613 34.2622 47.718 34.1748C48.0765 34.0884 48.5037 34.1801 49.0004 34.4501C49.4962 34.721 49.7852 35.1754 49.8674 35.8124C49.9487 36.4503 49.7888 36.963 49.3869 37.3512C48.9869 37.7394 48.1018 38.2617 46.7318 38.9182C45.3609 39.5728 44.3983 39.9787 43.8419 40.1358C43.2856 40.2911 42.4557 40.351 41.353 40.3158C40.2494 40.2822 39.2371 39.9937 38.315 39.4476C37.3948 38.8996 36.5992 38.0464 35.9273 36.8888C35.2554 35.7312 34.8372 34.5163 34.6738 33.2431C34.5527 31.9655 34.6665 30.8494 35.0133 29.8938C35.3601 28.9365 35.9245 27.9095 36.7075 26.8128C37.4923 25.7169 38.1922 25.004 38.8063 24.674C39.4204 24.3423 40.3849 24.1888 41.6998 24.2117C43.0147 24.2355 44.0921 24.4085 44.9329 24.7305C46.3706 25.3446 47.597 26.1519 48.6139 27.1516C49.6299 28.1495 50.1636 29.0945 50.2142 29.9856Z" fill="white"/>
<path d="M55.9524 24.2676C56.0725 24.4017 56.18 24.4678 56.2739 24.4652C56.3678 24.4634 56.4148 24.4396 56.4148 24.3946C56.4581 24.3452 56.5213 24.1714 56.6062 23.8723C56.6902 23.5714 57.0758 23.1364 57.7622 22.5665C58.4485 21.9974 59.0572 21.6347 59.59 21.4794C60.755 21.1742 62.1376 21.1574 63.737 21.43C65.3382 21.7009 66.3126 22.1394 66.6594 22.7464C67.1796 23.627 67.12 24.3734 66.4824 24.9875C65.8466 25.6016 65.0555 25.7746 64.1091 25.5063C63.1627 25.2363 62.3625 25.1455 61.7105 25.2346C61.0575 25.3219 60.6177 25.4949 60.392 25.7534C60.168 26.0128 59.7923 26.6992 59.2649 27.8145C58.7827 28.9227 58.4919 29.7653 58.3907 30.3414C58.2914 30.9158 58.2571 32.0275 58.286 33.6766C58.3149 35.3239 58.3004 36.3782 58.2426 36.8388C58.1866 37.2976 58.0223 37.6329 57.7477 37.8447C57.242 38.2046 56.7299 38.3696 56.2125 38.3388C55.6968 38.3088 55.2931 38.0793 55.0023 37.6505C54.7467 36.9941 54.4406 35.4818 54.0848 33.1119C53.7308 30.7429 53.3479 28.9703 52.936 27.7933C52.526 26.6172 52.2759 25.7101 52.1847 25.0722C52.0926 24.4326 52.1359 23.9729 52.3147 23.6923C52.4953 23.4126 52.8286 23.1973 53.3153 23.0464C53.8012 22.8938 54.1643 22.8594 54.4027 22.9441C54.6411 23.0288 54.9283 23.2476 55.266 23.6005C55.6029 23.9111 55.8314 24.1334 55.9524 24.2676Z" fill="white"/>
<path d="M76.948 27.582C76.2634 26.9238 75.5726 26.8497 74.8745 27.3597C74.1782 27.8679 73.6255 28.879 73.2164 30.3913C72.8064 31.9045 72.9112 33.2994 73.5307 34.577C74.152 35.8528 74.9648 36.3593 75.969 36.0981C76.6021 35.934 77.0572 35.7134 77.3345 35.4381C77.6136 35.1611 77.8664 34.6088 78.0931 33.7829C78.3216 32.9571 78.3116 31.8365 78.0642 30.4195C77.8158 29.0034 77.4438 28.0576 76.948 27.582ZM69.2861 31.1818C69.3629 29.396 69.8172 27.7682 70.648 26.2973C71.4788 24.8248 72.5589 23.8198 73.8883 23.2833C75.2195 22.7451 77.1801 23.151 79.7692 24.5009C81.1347 25.2209 82.0062 25.8315 82.3846 26.3326C82.7621 26.832 82.7901 27.4038 82.4677 28.0479C82.1471 28.6928 82.0179 29.929 82.0811 31.7571C82.2591 36.1034 80.7012 38.7592 77.4067 39.7262C74.9305 40.455 72.7947 39.8321 70.9984 37.8557C70.2416 37.0184 69.7422 36.1431 69.4993 35.2299C69.2825 34.3176 69.2112 32.9677 69.2861 31.1818Z" fill="white"/>
<path d="M94.9624 27.0045C94.5407 27.0001 93.8769 27.5189 92.972 28.5609C92.0662 29.6011 91.2778 30.6882 90.6059 31.8219C89.9358 32.9566 89.6748 33.6625 89.822 33.9395C89.9683 34.2148 90.484 34.5598 91.3681 34.9736C92.2541 35.3856 93.0127 35.653 93.6439 35.7747C95.2307 36.1162 96.2791 35.593 96.7903 34.2042C97.2545 32.9998 97.3114 31.5714 96.9601 29.9197C96.6079 28.2662 95.9423 27.2939 94.9624 27.0045ZM98.3436 38.5346C97.6807 39.0164 97.138 39.3005 96.7144 39.3852C96.2927 39.4716 95.3851 39.5052 93.9907 39.484C92.5981 39.4646 91.2507 39.1496 89.9485 38.5381C88.6453 37.9267 87.6998 37.6858 87.1128 37.8146C86.5276 37.9443 86.002 37.8102 85.5378 37.4123C85.2578 37.182 85.0898 36.6429 85.032 35.7959C84.976 34.9471 84.9291 32.5437 84.8912 28.5856C84.855 24.6258 84.8957 21.79 85.014 20.0765C85.1801 18.3613 85.4989 17.3475 85.9713 17.0343C86.7777 16.4749 87.586 16.4855 88.3952 17.0661C88.6959 17.2778 88.8657 17.659 88.9045 18.2096C88.9424 18.7584 88.9235 20.1859 88.8467 22.4941L88.6336 27.4351L89.5258 26.348C90.0767 25.5998 90.7414 24.9566 91.5198 24.4175C92.3001 23.8793 93.0551 23.5237 93.7848 23.3517C95.2677 23.0058 96.6575 23.3226 97.9535 24.3011C99.2512 25.2804 100.19 26.6895 100.771 28.5291C101.351 30.367 101.394 32.2313 100.901 34.123C100.581 35.3539 100.24 36.2759 99.8789 36.89C99.5194 37.5041 99.0083 38.0529 98.3436 38.5346Z" fill="white"/>
<path d="M109.72 35.0817C110.047 35.0941 110.546 34.6326 111.216 33.6983C111.888 32.7621 112.433 31.7527 112.852 30.6701C113.271 29.5858 113.5 28.8376 113.539 28.4255C113.555 28.0161 113.383 27.6447 113.022 27.3103C111.989 26.7668 111.043 26.6847 110.183 27.0632C109.325 27.4426 108.619 28.1247 108.062 29.1102C107.506 30.0966 107.29 31.0848 107.416 32.0748C107.511 32.6492 107.826 33.2906 108.359 33.9982C108.893 34.7067 109.347 35.0676 109.72 35.0817ZM119.185 32.2865C119.753 35.6041 120.023 37.6052 119.994 38.2898C119.967 38.9745 119.796 39.4483 119.481 39.7121C119.168 39.9777 118.672 40.0968 117.993 40.0686C117.315 40.0421 116.856 39.8409 116.613 39.4651C116.369 39.0883 116.134 38.1875 115.908 36.7617C115.684 35.3341 115.515 34.6176 115.399 34.6123C115.327 34.6106 114.933 35.0985 114.218 36.077C112.948 37.9051 111.354 38.783 109.435 38.7098C107.515 38.6375 105.95 37.6157 104.739 35.6464C103.84 34.1456 103.368 32.7983 103.323 31.6054C103.277 30.4125 103.581 29.2117 104.237 28.002C104.894 26.7906 105.722 25.7353 106.722 24.8363C107.721 23.9098 108.601 23.3487 109.359 23.1528C111.372 22.5652 113.43 22.9508 115.533 24.3104C116.765 25.1133 117.534 25.8192 117.837 26.428C118.143 27.0121 118.592 28.9646 119.185 32.2865Z" fill="white"/>
<path d="M136.632 41.0625C136.557 42.2271 135.864 42.7689 134.555 42.6895C134.165 42.5712 133.529 42.0612 132.647 41.1578C131.768 40.256 130.64 39.0314 129.263 37.4803C127.885 35.9274 127.175 35.1148 127.131 35.0415L127.016 36.8556C126.924 38.2514 126.511 39.177 125.777 39.6331C125.044 40.0919 124.307 39.8749 123.566 38.9837C123.306 38.6926 123.158 38.0864 123.122 37.1662C123.087 36.2468 123.165 33.4313 123.353 28.7206C123.516 24.0108 123.516 20.9403 123.353 19.5092C123.21 18.079 123.199 17.1376 123.32 16.6858C123.443 16.2341 123.745 15.92 124.227 15.7435C124.708 15.567 125.168 15.5388 125.607 15.6588C126.045 15.777 126.393 16.0038 126.651 16.3399C126.911 16.677 127.124 17.7446 127.29 19.5445C127.502 21.3444 127.565 22.9291 127.478 24.2984L127.298 27.0372C131.362 23.3482 133.699 21.3268 134.306 20.9739C134.493 20.9862 134.835 21.1459 135.331 21.4538C135.83 21.76 136.13 22.0177 136.231 22.2268C136.551 22.7517 136.477 23.3447 136.011 24.0055C135.545 24.6646 134.404 25.8081 132.586 27.436L128.811 30.8488L132.774 35.3909C134.43 37.3514 135.495 38.6661 135.967 39.3367C136.441 40.0072 136.663 40.5825 136.632 41.0625Z" fill="white"/>
<path d="M147.074 28.8869C146.826 28.2569 146.595 27.8175 146.381 27.5705C146.166 27.3217 145.842 27.1787 145.409 27.1435C144.977 27.1082 144.627 27.2979 144.358 27.7117C143.946 28.3919 143.863 28.9487 144.109 29.381C144.354 29.8116 145.219 30.5263 146.706 31.5233C148.194 32.5185 149.301 33.4317 150.029 34.262C150.756 35.0905 151.22 35.9728 151.42 36.9089C151.622 37.8433 151.628 38.5906 151.438 39.15C151.247 39.7076 150.777 40.2759 150.026 40.8547C147.444 42.9599 144.584 42.9987 141.446 40.9711C139.999 40.0465 139.143 39.1844 138.881 38.3842C138.621 37.5821 138.965 36.8878 139.911 36.3019L140.839 35.7549L142.768 37.0854C143.782 37.8363 144.612 38.2845 145.261 38.43C145.908 38.5765 146.46 38.5245 146.915 38.2748C147.371 38.0259 147.58 37.8301 147.544 37.6889C147.51 37.5477 147.292 37.2195 146.89 36.7042C146.442 36.2101 145.486 35.4434 144.022 34.4032C142.56 33.3611 141.529 32.5168 140.93 31.8691C140.373 31.2268 140.038 30.746 139.925 30.4257C139.814 30.1063 139.778 29.5919 139.817 28.8834C139.927 27.6084 140.417 26.4332 141.284 25.3576C142.152 24.283 143.138 23.6283 144.239 23.3954C144.814 23.2595 145.57 23.2771 146.507 23.4483C147.444 23.6177 148.159 23.8383 148.653 24.1083C149.149 24.3765 149.683 25.1318 150.257 26.3741C150.829 27.6164 151.095 28.4881 151.052 28.9893C151.008 29.4904 150.724 29.9272 150.199 30.2986C149.626 30.6639 149.131 30.806 148.714 30.7257C148.297 30.6463 147.982 30.4768 147.768 30.2174C147.556 29.9589 147.324 29.5151 147.074 28.8869Z" fill="white"/>
</g>
</svg>
